/* XPM */
static char *a2524bdca9e94de5e41e19f1dec98996XjCnj44vS5rJrHqZ[] = {
/* columns rows colors chars-per-pixel */
"64 64 7 1 ",
"  c None",
". c black",
"X c #241E1E",
"o c #343434",
"O c #0C5441",
"+ c #1B9474",
"@ c #37C59F",
/* pixels */
"                                                                ",
"                                                                ",
"                                                                ",
"                                                                ",
"                                                                ",
"                                                                ",
"                                                                ",
"                                                                ",
"                                                                ",
"                                                                ",
"                                                                ",
"                                                ..              ",
"                                               .o.              ",
"                                              .o.               ",
"                                             .o.                ",
"                                     ...    .o.                 ",
"                                    ..@..  .o.                  ",
"                                   ..@++...o.                   ",
"                                  ..@++++.o.                    ",
"                                 ..@.+++++..                    ",
"                                ...++++++++..                   ",
"                               ..@+.++++++++..                  ",
"                              ..@.++.+++++++O.                  ",
"                             ...+++++++++++O..                  ",
"                            ..@+.+++++++++O..                   ",
"                           ..@.++.+++++++O..                    ",
"                          ...+++++++++++O..                     ",
"                         ..@+.+++++++++O..                      ",
"                        ..@.++.+++++++O..                       ",
"                       ...+++++++++++O..                        ",
"                      ..@+.+++++++++O..                         ",
"                     ..@+++.+++++++O..                          ",
"                    ..@+++++++++++O..                           ",
"                   ....++++++++++O..                            ",
"                  ...X..++++++++O..                             ",
"             ..  .. ..X..++++++O..                              ",
"              ....   .XX..++++O..                               ",
"               ..   ..XXX..++O..                                ",
"                .. ..XXXXX..O..                                 ",
"                 ...XXX...X...                                  ",
"                 ..XXX.. ....                                   ",
"            .   ....X..   ..                                    ",
"            .. ..XX...   ..                                     ",
"             ...XXX.... ..                                      ",
"              ..XX..  ...                                       ",
"               ....    ..                                       ",
"                ..      ..                                      ",
"                 ..      .                                      ",
"                  ..                                            ",
"                                                                ",
"                                                                ",
"                                                                ",
"                                                                ",
"                                                                ",
"                                                                ",
"                                                                ",
"                                                                ",
"                                                                ",
"                                                                ",
"                                                                ",
"                                                                ",
"                                                                ",
"                                                                ",
"                                                                "
};
