/* XPM */
static char *aeca5944061b43acfb5cb158e14f63dc7Gli3gxIbiwQJpj3[] = {
/* columns rows colors chars-per-pixel */
"64 64 11 1 ",
"  c None",
". c black",
"X c #5D0303",
"o c #701515",
"O c #0A5459",
"+ c #1A5357",
"@ c #2A6F73",
"# c #841212",
"$ c #AF1313",
"% c #168B93",
"& c white",
/* pixels */
"                                                                ",
"                                                                ",
"                                                                ",
"                                                                ",
"                                                                ",
"                                                                ",
"                            .........                           ",
"                           .$$$######.                          ",
"                           .$..###..#.                          ",
"                          .$##..#..##X.                         ",
"                          .$##&X#X&##X.                         ",
"                          .$#########X.                         ",
"                          .$##.....##X.                         ",
"                           .$#.&&&.#X.                          ",
"                           .$$#...#XX.                          ",
"                       ...  .XXX.XXX.  ...                      ",
"                     ..$##..$.......$..##$..                    ",
"                    .$$X###XX#######XX###X$$.                   ",
"                    .$XX#####X#####X#####XX$.                   ",
"                    .###########o###########.                   ",
"                   .#.##########o##########.#.                  ",
"                   .#o####X#####o#####X####o#.                  ",
"                   .##o##.#X###X#X###X#.##o##.                  ",
"                   .o###o.o#XXX###XXX#o.####o.                  ",
"                   .o###o.Xo####o####oX.o###o.                  ",
"                   .o###o..X##ooooo##X..o###o.                  ",
"                    .o##. ..#o##o##o#.. .##o.                   ",
"                   .oo##.  .###ooo###.  .##oo.                  ",
"                   .o###.  .##o#o#o##.  .###o.                  ",
"                   .o###.  .Xo##X##oX.  .###o.                  ",
"                   .o###.   .Xo###oX.   .###o.                  ",
"                    .##.   ...........   .##.                   ",
"                    .O..   ..@.@O@.@..   ..O.                   ",
"                    ..O.   .X.@OOO@.X.   .O..                   ",
"                    .##.  .Xo#.OOO.#oX.  .##.                   ",
"                    .o##. .o###...###o. .##o.                   ",
"                    .oo#. .o###. .###o. .#oo.                   ",
"                     ... .o####. .####o. ...                    ",
"                         .o####. .####o.                        ",
"                         .o####. .####o.                        ",
"                         .o###o. .o###o.                        ",
"                         .o###o. .o###o.                        ",
"                          .o##o. .o##o.                         ",
"                          .oX#.   .#Xo.                         ",
"                           .oX.   .Xo.                          ",
"                           .X#X. .X#X.                          ",
"                          .###o. .o###.                         ",
"                          .####. .####.                         ",
"                          .o###. .###o.                         ",
"                          .o##o. .o##o.                         ",
"                          .o##.   .##o.                         ",
"                           .o#.   .#o.                          ",
"                           .Xo.   .oX.                          ",
"                            ..O. .O..                           ",
"                          ..+%.   .%+..                         ",
"                         .+%%O.   .O%%+.                        ",
"                         ......   ......                        ",
"                                                                ",
"                                                                ",
"                                                                ",
"                                                                ",
"                                                                ",
"                                                                ",
"                                                                "
};
