/* XPM */
static char *result[] = {
/* columns rows colors chars-per-pixel */
"64 64 11 1 ",
"  c black",
". c #17375A",
"X c #15375E",
"o c #1C4470",
"O c #514A4A",
"+ c #225083",
"@ c #3E5F83",
"# c #63768B",
"$ c #C5C5C5",
"% c white",
"& c None",
/* pixels */
"&&&&&&&&&&&&&&&&&&&&&&&&&&&&&&&&&&&&&&&&&&&&&&&&&&&&&&&&&&&&&&&&",
"&&&&&&&&&&&&&&&&&&&&&&&&&&&&&&&&&&&&&&&&&&&&&&&&&&&&&&&&&&&&&&&&",
"&&&&&&&&&&&&&&&&&&&&&&&&&&&&&&&&&&&&&&&&&&&&&&&&&&&&&&&&&&&&&&&&",
"&&&&&&&&&&&&&&&&&&&&&&&&&&&&&&#####&&&&&&&&&&&&&&&&&&&&&&&&&&&&&",
"&&&&&&&&&&&&&&&&&&&&&&&&&&&&&.......&&&&&&&&&&&&&&&&&&&&&&&&&&&&",
"&&&&&&&&&&&&&&&&&&&&&&&&&&&&&&.$$$.&&&&&&&&&&&&&&&&&&&&&&&&&&&&&",
"&&&&&&&&&&&&&&&&&&&&&&&&&&&&&&.$$$.&&&&&&&&&&&&&&&&&&&&&&&&&&&&&",
"&&&&&&&&&&&&&&&&&&&&&&&&&&&&&&.$$$.&&&&&&&&&&&&&&&&&&&&&&&&&&&&&",
"&&&&&&&&&&&&&&&&&&&&&&&&&&&&&.......&&&&&&&&&&&&&&&&&&&&&&&&&&&&",
"&&&&&&&&&&&&&&&&&&&&&&&###################&&&&&&&&&&&&&&&&&&&&&&",
"&&&&&&&&&&&&&&&&&&&&.........................&&&&&&&&&&&&&&&&&&&",
"&&&&&&&&&&&&&&&&&....#######################....&&&&&&&&&&&&&&&&",
"&&&&&&&&&&&&&&&&&.+++++++++++++++++++++++++++++.&&&&&&&&&&&&&&&&",
"&&&&&&&&&&&&&&&&&.+#                         #+.&&&&&&&&&&&&&&&&",
"&&&&&&&&&&&&&&&&&.+#  $$$$$$$   $$$  $$$$$$  #+.&&&&&&&&&&&&&&&&",
"&&&&&&&&&&&&&&&&&.+#                         #+.&&&&&&&&&&&&&&&&",
"&&&&&&&&&&&&&&&&&.+++++++++++++++++++++++++++++.&&&&&&&&&&&&&&&&",
"&&&&&&&&&&&&&&&&&...............................&&&&&&&&&&&&&&&&",
"&&&&&&&&&&&&&&&&&&@ooooooooooooo.ooooooooooooo@&&&&&&&&&&&&&&&&&",
"&&&&&&&&&&&&&&&&&&@o++++++++++++.++++++++++++o@&&&&&&&&&&&&&&&&&",
"&&&&&&&&&&&&&&&&&&@o++XXXXXXX+++.+++XXXXXXX++o@&&&&&&&&&&&&&&&&&",
"&&&&&&&&&&&&&&&&&&@o++X$X$X%X+++.+++X$X$X%X++o@&&&&&&&&&&&&&&&&&",
"&&&&&&&&&&&&&&&&&&@o++X$X$X%X+++.+++X$X$X%X++o@&&&&&&&&&&&&&&&&&",
"&&&&&&&&&&&&&&&&&&@o++X$X$X%X+++.+++X$X$X%X++o@&&&&&&&&&&&&&&&&&",
"&&&&&&&&&&&&&&&&&&@o++XXXXXXX+++.+++XXXXXXX++o@&&&&&&&&&&&&&&&&&",
"&&&&&&&&&&&&&&&&&&@o++X$X%X%X+++.+++X$X%X%X++o@&&&&&&&&&&&&&&&&&",
"&&&&&&&&&&&&&&&&&&@o++X$X%X%X+++.+++X$X%X%X++o@&&&&&&&&&&&&&&&&&",
"&&&&&&&&&&&&&&&&&&@o++X$X%X%X+++.+++X$X%X%X++o@&&&&&&&&&&&&&&&&&",
"&&&&&&&&&&&&&&&&&&@o++XXXXXXX+++.+++XXXXXXX++o@&&&&&&&&&&&&&&&&&",
"&&&&&&&&&&&&&&&&&&@o++++++++++++.++++++++++++o@&&&&&&&&&&&&&&&&&",
"&&&&&&&&&&&&&&&&&&@o++++++++++++.++++++++++++o@&&&&&&&&&&&&&&&&&",
"&&&&&&&&&&&&&&&&&&@o++XXXXXXX+++.+++XXXXXXX++o@&&&&&&&&&&&&&&&&&",
"&&&&&&&&&&&&&&&&&&@o++X$$$$$X+++.+++#+++++X++o@&&&&&&&&&&&&&&&&&",
"&&&&&&&&&&&&&&&&&&@o++X$O$O$X+++.+++#+++++X++o@&&&&&&&&&&&&&&&&&",
"&&&&&&&&&&&&&&&&&&@o++X$$$$$X+++.+++#+++++X++o@&&&&&&&&&&&&&&&&&",
"&&&&&&&&&&&&&&&&&&@o++X$OOO$X+++.+++#+++++X++o@&&&&&&&&&&&&&&&&&",
"&&&&&&&&&&&&&&&&&&@o++X$$$$$X+++.+++#+++++X++o@&&&&&&&&&&&&&&&&&",
"&&&&&&&&&&&&&&&&&&@o++X$OOO$X+++.+++#+++++X++o@&&&&&&&&&&&&&&&&&",
"&&&&&&&&&&&&&&&&&&@o++X$$$$$X+++.+++#+++++X++o@&&&&&&&&&&&&&&&&&",
"&&&&&&&&&&&&&&&&&&@o++XXXXXXX+++.+++######X++o@&&&&&&&&&&&&&&&&&",
"&&&&&&&&&&&&&&&&&&@o++++++++++++.++++++++++++o@&&&&&&&&&&&&&&&&&",
"&&&&&&&&&&&&&&&&&&@o++++++++++++.++++++++++++o@&&&&&&&&&&&&&&&&&",
"&&&&&&&&&&&&&&&&&&@o++XXXXXXX+++.+++XXXXXXX++o@&&&&&&&&&&&&&&&&&",
"&&&&&&&&&&&&&&&&&&@o++#+++++X+++.+++#+++++X++o@&&&&&&&&&&&&&&&&&",
"&&&&&&&&&&&&&&&&&&@o++#+++++X+++.+++#+++++X++o@&&&&&&&&&&&&&&&&&",
"&&&&&&&&&&&&&&&&&&@o++#+++++X+++.+++#+++++X++o@&&&&&&&&&&&&&&&&&",
"&&&&&&&&&&&&&&&&&&@o++#+++++X+++.+++#+++++X++o@&&&&&&&&&&&&&&&&&",
"&&&&&&&&&&&&&&&&&&@o++#+++++X+++.+++#+++++X++o@&&&&&&&&&&&&&&&&&",
"&&&&&&&&&&&&&&&&&&@o++#+++++X+++.+++#+++++X++o@&&&&&&&&&&&&&&&&&",
"&&&&&&&&&&&&&&&&&&@o++#+++++X+++.+++#+++++X++o@&&&&&&&&&&&&&&&&&",
"&&&&&&&&&&&&&&&&&&@o++######X+++.+++######X++o@&&&&&&&&&&&&&&&&&",
"&&&&&&&&&&&&&&&&&&@o++++++++++++.++++++++++++o@&&&&&&&&&&&&&&&&&",
"&&&&&&&&&&&&&&&&&&@o++++++++++++.++++++++++++o@&&&&&&&&&&&&&&&&&",
"&&&&&&&&&&&&&&&&&&@o++XXXXXXX+++.+++XXXXXXX++o@&&&&&&&&&&&&&&&&&",
"&&&&&&&&&&&&&&&&&&@o++#+++++X+++.+++#+++++X++o@&&&&&&&&&&&&&&&&&",
"&&&&&&&&&&&&&&&&&&@o++#+++++X+++.+++#+++++X++o@&&&&&&&&&&&&&&&&&",
"&&&&&&&&&&&&&&&&&&@o++#+++++X+++.+++#+++++X++o@&&&&&&&&&&&&&&&&&",
"&&&&&&&&&&&&&&&&&&@o++#+++++X+++.+++#+++++X++o@&&&&&&&&&&&&&&&&&",
"&&&&&&&&&&&&&&&&&&@o++#+++++X+++.+++#+++++X++o@&&&&&&&&&&&&&&&&&",
"&&&&&&&&&&&&&&&&&&@o++######X+++.+++######X++o@&&&&&&&&&&&&&&&&&",
"&&&&&&&&&&&&&&&&&&@o++++++++++++.++++++++++++o@&&&&&&&&&&&&&&&&&",
"&&&&&&&&&&&&&&&&&&@ooooooooooooo.ooooooooooooo@&&&&&&&&&&&&&&&&&",
"&&&&&&&&&&&&&&&&&...............................&&&&&&&&&&&&&&&&",
"&&&&&&&&&&&&&&&&&&&&&&&&&&&&&&&&&&&&&&&&&&&&&&&&&&&&&&&&&&&&&&&&"
};
