/* XPM */
static char *_47e7ee0ec594e0ebba49ee3616deb02uWNK8zraBcAL109B[] = {
/* columns rows colors chars-per-pixel */
"64 64 14 1 ",
"  c None",
". c black",
"X c #161212",
"o c #1E1C1C",
"O c #2F2B2B",
"+ c #095E0C",
"@ c #0F4D11",
"# c #106913",
"$ c #1A7E1D",
"% c #470748",
"& c #510852",
"* c #5D095E",
"= c #1B7785",
"- c white",
/* pixels */
"                                                                ",
"                                                                ",
"                                                                ",
"                                                                ",
"                          .........                             ",
"                         .OOooooooX.                            ",
"                         .OoooooooX.                            ",
"                         .OoooooooX.                            ",
"                         .O#######X.                            ",
"                        .$#########@.                           ",
"                        .$##-o#o-##@.                           ",
"                        .$#########@.                           ",
"                        .$##----o##@.                           ",
"                         .$##ooo=#@.                            ",
"                         .$$####=@@.                            ",
"                     ...  .@@@@@@@.  ...                        ",
"                   ..$##..$.......$..##$..                      ",
"                  .$$+###++#######++###+$$.                     ",
"                  .$++#####+#####+#####++$.                     ",
"                  .###########+###########.                     ",
"                 .#.##########+##########.#.                    ",
"                 .#@####@#####+#####@####@#.                    ",
"                 .##@##.#@###@#@###@#.##@##.                    ",
"                 .+###+.+#@@@###@@@#+.####+.                    ",
"                 .+###+.@+####+####+@.+###+.                    ",
"                 .+###+..@##+++++##@..+###+.                    ",
"                  .+##. ..#+##+##+#.. .##+.                     ",
"                 .++##.  .###+++###.  .##++.                    ",
"                 .+###.  .##+#+#+##.  .###+.                    ",
"                 .+###.  .@+##@##+@.  .###+.                    ",
"                 .+###.   .@+###+@.   .###+.                    ",
"                  .##.   ...........   .##.                     ",
"                  .*..   ..%.%*%.%..   ..*.                     ",
"                  ..*.   .@.%***%.@.   .*..                     ",
"                  .##.  .@+#.***.#+@.  .##.                     ",
"                  .+##. .+###...###+. .##+.                     ",
"                  .++#. .+###. .###+. .#++.                     ",
"                   ... .+####. .####+. ...                      ",
"                       .+####. .####+.                          ",
"                       .+####. .####+.                          ",
"                       .+###+. .+###+.                          ",
"                       .+###+. .+###+.                          ",
"                        .+##+. .+##+.                           ",
"                        .+@#.   .#@+.                           ",
"                         .+@.   .@+.                            ",
"                         .@#@. .@#@.                            ",
"                        .###+. .+###.                           ",
"                        .####. .####.                           ",
"                        .+###. .###+.                           ",
"                        .+##+. .+##+.                           ",
"                        .+##.   .##+.                           ",
"                         .+#.   .#+.                            ",
"                         .@+.   .+@.                            ",
"                          ..*. .*..                             ",
"                        ..*&.   .&*..                           ",
"                       .*&&%.   .%&&*.                          ",
"                       ......   ......                          ",
"                                                                ",
"                                                                ",
"                                                                ",
"                                                                ",
"                                                                ",
"                                                                ",
"                                                                "
};
