/* XPM */
static char *_0e1a8c995584627b5a26dc171cbc041RhwQhzKbzgVThQ5P[] = {
/* columns rows colors chars-per-pixel */
"64 64 5 1 ",
"  c #311A06",
". c #66360D",
"X c #9E591D",
"o c #CF8342",
"O c #F89F52",
/* pixels */
"ooooooooooooooooooooooooooooooooooooooooooooooooooooooOOoooooooo",
"ooooooooooooooooooooooooooooooooooooooooooooooooooooooXOOooooooo",
"oooooooooooooooooooooooooooooooooooooooooooooooooooooooXOooooooo",
"ooooooooooooooooooooooooooooooooooooooooooooooooooooooooXOOooooo",
"oooooooooooooooooooooooooooooooooooooooooooooooooooooooooXOooooo",
"oooooooooooooooooooooooooooooooooooooooooooooooooooooooooOOOoooo",
"ooooooooooooooooooooooooooooooooooooooooooooooooooooooooOOXOOooo",
"ooooooooooooooooooooooooooooooooooooooooooooooooooooooooOXXXOOoo",
"oooooooooooooooooooooooooooooooooooooooooooooooooOOooooOOoooXOoo",
"oooooooooooooooooooooooooooooooooooooooooooooooOOOOOOoOOXooooOoo",
"oooooooooooooooooooooooooooooooooooooooooooooooOXXXXOOOOooooOXoo",
"oooooooooooooooooooooooooooooooooooooooooooooooXooooXXOOooooOooo",
"ooooooooooooooooooooooooooooooooooooooooooooooooooooooXOooooOooo",
"oooooooooooooooooooooooooooooooooooooooooooooooooooooooOooooXOoo",
"oooooooooooooooooooooooooooooooooooooooooooooooooOOOOOoOoooooOOo",
"oooooooooooooooooooooooooooooooooooooooooooooooooOXXXOOOoooooXOo",
"oooooooooooooooooooooooooooooooooooooooooooooooooXooOOXXooooooOo",
"ooooooooooooooooooooooooooooooooooooooooooooooooooooOOXoooooooOo",
"ooooooooooooooooooooooooooooooooooooooooooooooooooooXOOoooooooOO",
"oooooooooooooooooooooooooooooooooooooooooooooooooooooXXoooooooXO",
"oooooooooooooooooooooooooooooooooooooooooooooooooooooooooooooooO",
"OooooooooooooooooooooooooooooooooooooooooooooooooooooooooooooooO",
"OooooooooooooOoooooooooooooooooooooooooooooooooooooooooooooooooX",
"OOoooooooooooOoooooooooooooooooooooooooooooooooooooooooooooooooo",
"XOooooooooooOXoooooooooooooooooooooooooooooooooooooooooooooooooo",
"oOOooooooooOXooooooooooooooooooooooooooooooooooooooooooooooooooo",
"oOOoooooooOOoooooooooooooooooooooooooooooooooooooooooooooooooooo",
"oXOoooooOOOOOooooooooooooooooooooooooooooooooooooooooooooooooooo",
"ooOOOooOOXXXOooooooooooooooooooooooooooooooooooooooooooooooooooo",
"ooXXOOOXXoooOOoooooooooooooooooooooooooooooooooooooooooooooooooo",
"ooooXOOoooooXOoooooooooooooooooooooooooooooooooooooooooooooooooo",
"oooooXXOOooooXoooooooooooooooooooooooooooooooooooooooooooooooooo",
"oooooooXOOoooooooooooooooooooooooooooooooooooooooooooooooooooooo",
"ooooooooXXoooooooooooooooooooooooooooooooooooooooooooooooooooooo",
"oooooooooooooooooooooooooooooooooooooooooooooooooooooooooooooooo",
"oooooooooooooooooooooooooooooooooooooooooooooooooooooooooooooooo",
"oooooooooooooooooooooooooooooooooooooooooooooooooooooooooooooooo",
"oooooooooooooooooooooooooooooooooooooooooooooooooooooooooooooooo",
"oooooooooooooooooooooooooooooooooooooooooooooooooooooooooooooooo",
"oooooooooooooooooooooooooooooooooooooooooooooooooooooooooooooooo",
"oooooooooooooooooooooooooooooooooooooooooooooooooooooooooooooooo",
"oooooooooooooooooooooooooooooooooooooooooooooooooooooooooooooooo",
"oooooooooooooooooooooooooooooooooooooooooooooooooooooooooooooooo",
"oooooooooooooooooooooooooooooooooooooooooooooooooooooooooooooooo",
"oooooooooooooooooooooooooooooooooooooooooooooooooooooooooooooooo",
"oooooooooooooooooooooooooooooooooooooooooooooooooooooooooooooooo",
"oooooooooooooooooooooooooooooooooooooooooooooooooooooooooooooooo",
"oooooooooooooooooooooooooooooooooooooooooooooooooOoooooooooooooo",
"oooooooooooooooooooooooooooooooooooooooooooooOoooOoooooooooooooo",
"oooooooooooooooooooooooooooooooooooooooooooooOOoOOoooooooooooooo",
"oooooooooooooooooooooooooooooooooooooooooooooXOOXXoooooooooooooo",
"ooooooooooooooooooooooooooooooooooooooooooooooOOOooooooOoooooooo",
"ooooooooooooooooooooooooooooooooooooooooooooooXXOOooooOOoooooooo",
"ooooooooooooooooooooooooooooooooooooooooooooooooXOoooOOXoooooooo",
"oooooooooooooooooooooooooooooooooooooooooooooooooOOOOOXooooooooo",
"oooooooooooooooooooooooooooooooooooooooooooooooooO..OOoooooooooo",
"ooooooooooooooooooooooooooooooooooooooooooooooooOO  .OOooooooooo",
"ooooooooooooooooooooooooooooooooooooooooooooooooO.   .Oooooooooo",
"ooooooooooooooooooooooooooooooooooooooooooooooooO..  .Oooooooooo",
"ooooooooooooooooooooooooooooooooooooooooooooooooXO..OOXooooooooo",
"oooooooooooooooooooooooooooooooooooooooooooooooooO.OXXoooooooooo",
"oooooooooooooooooooooooooooooooooooooooooooooooooXOOOOoooooooooo",
"ooooooooooooooooooooooooooooooooooooooooooooooooooXXXOOooooooooo",
"oooooooooooooooooooooooooooooooooooooooooooooooooooooXOOoooooooo"
};
